<svg width="193" height="25" viewBox="0 0 193 25" fill="none" xmlns="http://www.w3.org/2000/svg">
<line x1="13" y1="9.5" x2="20" y2="9.5" stroke="white"/>
<line x1="5" y1="13.5" x2="20" y2="13.5" stroke="white"/>
<line x1="5" y1="17.5" x2="20" y2="17.5" stroke="white"/>
<path d="M10 9L5.5 11.5981L5.5 6.40192L10 9Z" fill="white"/>
<rect x="46.8228" y="6" width="8" height="12" rx="0.5" stroke="white"/>
<circle cx="50.8228" cy="13.5" r="1.5" stroke="white"/>
<circle cx="50.8228" cy="8.5" r="0.5" stroke="white"/>
<path d="M43.9751 5.85547H39.6768C39.1245 5.85547 38.6768 6.30318 38.6768 6.85547V14.1905C38.6768 14.7428 39.1245 15.1905 39.6768 15.1905H43.9751" stroke="white"/>
<line x1="41.3511" y1="17.9199" x2="43.9751" y2="17.9199" stroke="white"/>
<path d="M84.945 5.2085L84.293 6.00329C85.87 7.5262 86.863 9.69496 86.863 12.1054C86.863 14.5158 85.869 16.6845 84.293 18.2075L84.944 19.0022C85.8641 18.1272 86.5991 17.0619 87.102 15.8745C87.6048 14.687 87.8646 13.4035 87.8647 12.1056C87.8648 10.8077 87.6052 9.52411 87.1025 8.33659C86.5998 7.14906 85.865 6.08371 84.945 5.2085ZM82.673 7.97933L82.022 8.77412C82.4467 9.20893 82.784 9.72752 83.0143 10.2996C83.2445 10.8717 83.363 11.4858 83.3629 12.1061C83.3628 12.7264 83.2441 13.3405 83.0137 13.9125C82.7833 14.4845 82.4458 15.003 82.021 15.4377L82.672 16.2325C83.712 15.1908 84.363 13.7283 84.363 12.1064C84.363 10.4845 83.713 9.021 82.673 7.97933ZM72 8.98037V15.2304H74.804L80 18.3554V5.85537L74.804 8.98037H72ZM79 7.65954V16.5512L75.072 14.1887H73V10.022H75.072L79 7.65954Z" fill="white"/>
<rect x="96" y="10" width="97" height="4" rx="2" fill="#C4C4C4"/>
</svg>
