<svg width="234" height="34" viewBox="0 0 234 34" fill="none" xmlns="http://www.w3.org/2000/svg">
<path d="M100 17C100 7.61116 107.611 0 117 0C126.389 0 134 7.61116 134 17C134 26.3888 126.389 34 117 34C107.611 34 100 26.3888 100 17Z" fill="white"/>
<path d="M112.77 23.3748L123.811 16.9998L112.77 10.6248V23.3748Z" fill="black"/>
<path d="M12.8952 14.0134L13.6526 13.1478C12.4624 11.7413 10.7312 10.9839 9 10.9839V12.0658C10.4066 12.0658 11.8132 12.715 12.787 13.797L12.8952 14.0134ZM21.0102 19.0988C19.7118 19.0988 18.5216 18.5578 17.5478 17.6922L16.8986 18.5578C17.9806 19.6398 19.4954 20.1808 21.0102 20.1808V21.8038L24.7972 19.6398L21.0102 17.4758V19.0988ZM21.0102 12.6068V14.2298L24.7972 12.0658L21.0102 9.90186V11.5249C19.279 11.5249 17.5478 12.2822 16.4658 13.6888L12.787 17.9086C11.8132 18.9906 10.4066 19.6398 9 19.6398V20.7218C10.7312 20.7218 12.4624 19.9644 13.5444 18.5578L17.2232 14.338C18.197 13.256 19.6036 12.6068 21.0102 12.6068Z" fill="white"/>
<path d="M72.82 10L64.164 14.9977V10.541H62V21.361H64.164V16.9042L72.82 21.902V10Z" fill="white"/>
<path d="M170.656 10.5365V14.9565L162 10V21.8036L170.656 16.8472V21.2671H172.82V10.5365H170.656Z" fill="white"/>
<path d="M214.869 12.705H219.738V14.328L223.525 12.164L219.738 10V11.623H214.869C212.164 11.623 210 13.787 210 16.492C210 17.1412 210.108 17.7904 210.433 18.4396L211.407 17.8986C211.19 17.4658 211.082 17.033 211.082 16.492C211.082 14.4362 212.813 12.705 214.869 12.705ZM224.715 14.5444L223.741 15.0854C223.958 15.5182 224.066 15.951 224.066 16.492C224.066 18.5478 222.335 20.279 220.279 20.279H215.41V18.656L211.623 20.82L215.41 22.984V21.361H220.279C222.984 21.361 225.148 19.197 225.148 16.492C225.148 15.8428 225.04 15.1936 224.715 14.5444Z" fill="white"/>
</svg>
