<svg width="100" height="40" viewBox="0 0 100 40" fill="none" xmlns="http://www.w3.org/2000/svg">
<circle cx="20" cy="20" r="20" fill="#131313"/>
<circle cx="80" cy="20" r="20" fill="#131313"/>
<path d="M83.3998 17.8801L78.8098 13.2901C78.6224 13.1038 78.369 12.9993 78.1048 12.9993C77.8406 12.9993 77.5872 13.1038 77.3998 13.2901C77.3061 13.383 77.2317 13.4936 77.1809 13.6155C77.1301 13.7373 77.104 13.868 77.104 14.0001C77.104 14.1321 77.1301 14.2628 77.1809 14.3846C77.2317 14.5065 77.3061 14.6171 77.3998 14.7101L81.9998 19.2901C82.0935 19.383 82.1679 19.4936 82.2187 19.6155C82.2695 19.7373 82.2956 19.868 82.2956 20.0001C82.2956 20.1321 82.2695 20.2628 82.2187 20.3846C82.1679 20.5065 82.0935 20.6171 81.9998 20.7101L77.3998 25.2901C77.2115 25.477 77.1052 25.7312 77.1042 25.9965C77.1033 26.2619 77.2078 26.5168 77.3948 26.7051C77.5818 26.8934 77.8359 26.9997 78.1013 27.0006C78.3666 27.0016 78.6215 26.897 78.8098 26.7101L83.3998 22.1201C83.9616 21.5576 84.2772 20.7951 84.2772 20.0001C84.2772 19.2051 83.9616 18.4426 83.3998 17.8801Z" fill="#7B7B7B"/>
<path d="M18.5999 20.7101C18.5061 20.6171 18.4317 20.5065 18.381 20.3846C18.3302 20.2628 18.3041 20.1321 18.3041 20.0001C18.3041 19.868 18.3302 19.7373 18.381 19.6155C18.4317 19.4936 18.5061 19.383 18.5999 19.2901L23.1899 14.7101C23.2836 14.6171 23.358 14.5065 23.4088 14.3846C23.4595 14.2628 23.4857 14.1321 23.4857 14.0001C23.4857 13.868 23.4595 13.7373 23.4088 13.6155C23.358 13.4936 23.2836 13.383 23.1899 13.2901C23.0025 13.1038 22.749 12.9993 22.4849 12.9993C22.2207 12.9993 21.9672 13.1038 21.7799 13.2901L17.1899 17.8801C16.6281 18.4426 16.3125 19.2051 16.3125 20.0001C16.3125 20.7951 16.6281 21.5576 17.1899 22.1201L21.7799 26.7101C21.9661 26.8948 22.2175 26.999 22.4799 27.0001C22.6115 27.0008 22.7419 26.9756 22.8638 26.9258C22.9856 26.8761 23.0964 26.8027 23.1899 26.7101C23.2836 26.6171 23.358 26.5065 23.4088 26.3846C23.4595 26.2628 23.4857 26.1321 23.4857 26.0001C23.4857 25.868 23.4595 25.7373 23.4088 25.6155C23.358 25.4936 23.2836 25.383 23.1899 25.2901L18.5999 20.7101Z" fill="white"/>
</svg>
