<svg width="14" height="14" viewBox="0 0 14 14" fill="none" xmlns="http://www.w3.org/2000/svg">
<path d="M12.7971 1.72697C12.0807 1.00422 11.1189 0.577054 10.1024 0.530191C9.0859 0.483329 8.08888 0.820188 7.30908 1.47397C7.21938 1.54167 7.11133 1.58071 6.99908 1.58597C6.88614 1.58268 6.77719 1.54344 6.68808 1.47397C5.90864 0.819816 4.91169 0.482705 3.8952 0.529575C2.87871 0.576444 1.91702 1.00387 1.20108 1.72697C0.43108 2.49697 0.00708008 3.52097 0.00708008 4.60997C0.00708008 5.69897 0.43108 6.72297 1.17508 7.46497L5.63708 12.688C5.80522 12.8852 6.01416 13.0436 6.24948 13.1522C6.4848 13.2609 6.7409 13.3171 7.00008 13.3171C7.25926 13.3171 7.51536 13.2609 7.75068 13.1522C7.986 13.0436 8.19494 12.8852 8.36308 12.688L12.7981 7.49297C13.1779 7.11527 13.4792 6.66599 13.6843 6.17113C13.8894 5.67627 13.9944 5.14566 13.9931 4.60997C13.9939 4.07426 13.8887 3.54368 13.6834 3.04885C13.4782 2.55403 13.1769 2.10476 12.7971 1.72697Z" fill="#C4C4C4"/>
</svg>
